<svg xmlns="http://www.w3.org/2000/svg" viewBox="0 0 23.95 23.83"><defs><style>.cls-1{fill:none;stroke:#453e56;stroke-miterlimit:10;stroke-width:1.1px;}</style></defs><title>Admin</title><g id="Layer_2" data-name="Layer 2"><g id="Layer_2-2" data-name="Layer 2"><circle class="cls-1" cx="10.27" cy="5.59" r="5.04"/><path class="cls-1" d="M13.61,13.28H8.17A7.62,7.62,0,0,0,.55,20.9v2.38H11.37"/><path class="cls-1" d="M18.44,13.47l1.1,3.38h3.55a.31.31,0,0,1,.18.56L20.4,19.5l1.1,3.38a.31.31,0,0,1-.48.34l-2.88-2.09-2.87,2.09a.31.31,0,0,1-.48-.34l1.1-3.38L13,17.41a.31.31,0,0,1,.18-.56h3.55l1.1-3.38A.31.31,0,0,1,18.44,13.47Z"/></g></g></svg>