<svg xmlns="http://www.w3.org/2000/svg" viewBox="0 0 23.87 24.22"><defs><style>.cls-1{fill:none;stroke:#453e56;stroke-miterlimit:10;stroke-width:1.1px;}.cls-2{fill:#453e56;}</style></defs><title>Resource</title><g id="Layer_2" data-name="Layer 2"><g id="Layer_2-2" data-name="Layer 2"><path class="cls-1" d="M.55,21.39H23.32V19.07a1.28,1.28,0,0,1,0-2.56V14.2H.55Z"/><rect class="cls-1" x="16.43" y="16.46" width="2.78" height="2.61"/><rect class="cls-1" x="11.42" y="16.46" width="2.78" height="2.61"/><rect class="cls-1" x="3.33" y="16.47" width="5.67" height="2.61"/><rect class="cls-1" x="2.7" y="21.38" width="7.45" height="2.28"/><rect class="cls-1" x="12.13" y="21.38" width="9.09" height="2.28"/><line class="cls-1" x1="3.73" y1="5.27" x2="5.96" y2="5.27"/><line class="cls-1" x1="3.73" y1="7.9" x2="5.96" y2="7.9"/><polyline class="cls-1" points="13.73 9.21 6.06 9.21 6.06 4.16 11.22 4.16"/><line class="cls-1" x1="7.21" y1="4.01" x2="7.21" y2="1.79"/><line class="cls-1" x1="7.21" y1="11.39" x2="7.21" y2="9.16"/><line class="cls-1" x1="9.85" y1="4.01" x2="9.85" y2="2.13"/><line class="cls-1" x1="9.85" y1="11.39" x2="9.85" y2="9.16"/><line class="cls-1" x1="12.48" y1="11.39" x2="12.48" y2="9.16"/><circle class="cls-2" cx="16.67" cy="7.23" r="0.93"/><path class="cls-1" d="M14.22,5.4a3.16,3.16,0,0,1,4.88,0"/><path class="cls-1" d="M12.83,3.17a5.71,5.71,0,0,1,7.69-.06"/><line class="cls-1" x1="8.89" y1="0.26" x2="14.75" y2="11.08"/></g></g></svg>