<svg xmlns="http://www.w3.org/2000/svg" viewBox="0 0 22.44 23.86"><defs><style>.cls-1{fill:#453e56;}.cls-2,.cls-3{fill:none;stroke:#453e56;stroke-miterlimit:10;}.cls-3{stroke-linecap:round;}</style></defs><title>Rex</title><g id="Layer_2" data-name="Layer 2"><g id="Layer_2-2" data-name="Layer 2"><path class="cls-1" d="M17.64,11.57h1l-.16.77a1.74,1.74,0,0,1-.88,1.21h0Z"/><path class="cls-1" d="M19.49,11.57h1l-.15.77a1.8,1.8,0,0,1-.88,1.21h0Z"/><path class="cls-1" d="M15.79,11.57h1l-.16.77a1.74,1.74,0,0,1-.88,1.21h0Z"/><path class="cls-1" d="M17.2,16.73l-.95-.42.46-.65A1.76,1.76,0,0,1,18,14.92h0Z"/><path class="cls-1" d="M15.51,16l-.95-.42.46-.65a1.79,1.79,0,0,1,1.29-.74h0Z"/><path class="cls-1" d="M18.89,17.47l-.95-.42.46-.64a1.77,1.77,0,0,1,1.29-.75h0Z"/><path class="cls-2" d="M15.12,2.86H8.8a2.37,2.37,0,0,0-4.73,0s0,0,0,.06A4.29,4.29,0,0,0,.5,7.15v16.2H15.34l-3.07-2.24A7.19,7.19,0,0,0,8,19.74H7.44V18.18h2a9.72,9.72,0,0,1,2.51.33l4.51,1.23,2.1-2.14L11,14.06c-1.11-.51-3.06-2.79-4.28-2.81h13.7a1.57,1.57,0,0,0,1.57-1.57A6.82,6.82,0,0,0,15.12,2.86Z"/><line class="cls-3" x1="6.46" y1="2.86" x2="6.46" y2="4.32"/><line class="cls-3" x1="17.51" y1="5.55" x2="18.57" y2="6.62"/></g></g></svg>