<svg xmlns="http://www.w3.org/2000/svg" viewBox="0 0 24 23.96"><defs><style>.cls-1{fill:#453e56;}.cls-2,.cls-3{fill:none;stroke:#453e56;stroke-width:1.1px;}.cls-2{stroke-miterlimit:10;}.cls-3{stroke-linecap:round;stroke-linejoin:round;}</style></defs><title>Transfer_1</title><g id="Layer_2" data-name="Layer 2"><g id="Layer_2-2" data-name="Layer 2"><path class="cls-1" d="M17.2,16.06,15.67,9h0l-.05-.27-.68-.83L12,4.24,8.38,8.69,6.8,16.06,12,19l.63-.39h0ZM15,11l1,4.46-3,1.69,1.14-3.45ZM12,6l2.49,3.06-1.07,3.24L12,16.61l-.73-2.23L9.51,9.05h0ZM9,11l2,6.15-3-1.69Z"/><path class="cls-2" d="M12,23.41A11.43,11.43,0,0,1,4.86,3.06"/><path class="cls-2" d="M12,.55A11.42,11.42,0,0,1,19,21"/><polyline class="cls-2" points="5.01 8.07 5.01 3.06 0 3.06"/><polyline class="cls-2" points="18.99 16.01 18.99 21.03 24 21.03"/><polygon class="cls-3" points="7.5 15.5 16.51 15.5 12 8.26 7.5 15.5"/><line class="cls-3" x1="12" y1="8.26" x2="12" y2="5.36"/></g></g></svg>