<svg xmlns="http://www.w3.org/2000/svg" viewBox="0 0 23.9 24.11"><defs><style>.cls-1{fill:none;stroke:#453e56;stroke-miterlimit:10;stroke-width:1.1px;}</style></defs><title>Voting_1</title><g id="Layer_2" data-name="Layer 2"><g id="Layer_2-2" data-name="Layer 2"><path class="cls-1" d="M3.39,14.09,6.26,7.3a3.16,3.16,0,0,1,1.9-1.75l5.61-1.83,4.35,4.35-.52.51c-1.17,1.18-2.81,2.21-4.33,1.9l-2.08,2.08a3.15,3.15,0,0,1-3.08.63.82.82,0,0,1-.34-1.36l3.94-3.94"/><rect class="cls-1" x="15.27" y="0.64" width="2.9" height="7.94" transform="translate(1.64 13.17) rotate(-45)"/><polygon class="cls-1" points="12.55 14.12 12.55 20.35 17.95 23.47 23.35 20.35 23.35 14.12 17.95 11 12.55 14.12"/><polyline class="cls-1" points="12.55 14.12 17.95 17.2 23.35 14.12"/><line class="cls-1" x1="17.95" y1="17.2" x2="17.95" y2="23.47"/><polyline class="cls-1" points="10.88 16.94 5.95 21.88 0.78 16.71 8.52 8.96 9.58 10.02"/><polyline class="cls-1" points="5.89 14.09 5.89 16.05 9.52 16.05"/></g></g></svg>